# xmcd
#
# Track frame offsets:
#  150
#  18279
#  34465
#  51641
#  70728
#  90862
#  108264
#  131970
#  150130
#  167582
#
# Disc length: 2488 seconds
#
# Revision: 0
# Processed by: cddbd v1.5.1PL2 Copyright (c) Steve Scherf et al.
# Submitted via: Collectorz.com_Music_Collector 6.11
#
DISCID=7809b60a
DTITLE=Eden's Lie - Eden's Lie
DYEAR=2006
DGENRE=Hard Rock
TTITLE0=Here
TTITLE1=Standing Still
TTITLE2=Endless Days
TTITLE3=Closure
TTITLE4=This Time
TTITLE5=Chase Away
TTITLE6=Lost In A Phrase
TTITLE7=Aligned
TTITLE8=Wait
TTITLE9=Faith Keeper
EXTD=
EXTT0=
EXTT1=
EXTT2=
EXTT3=
EXTT4=
EXTT5=
EXTT6=
EXTT7=
EXTT8=
EXTT9=
PLAYORDER=
